<svg width="817" height="579" viewBox="0 0 817 579" fill="none" xmlns="http://www.w3.org/2000/svg">
<path d="M410.461 271.594V28.1294V14.1343L396.466 14.1294C355.653 14.115 314.832 14.0958 274.009 14.0767C192.339 14.0383 110.658 14 29 14H14.9904L15 28.0096C15.0456 94.7955 15.0456 161.539 15.0456 228.288V242.253L29.0106 242.288C41.458 242.319 53.8917 242.336 66.3155 242.352C105.593 242.403 144.773 242.454 183.978 242.977L183.992 242.977C187.983 243.026 192.262 243.649 197.239 244.61C198.81 244.914 200.616 245.288 202.531 245.686C205.146 246.228 207.966 246.813 210.666 247.316C210.941 248.29 211.215 249.246 211.479 250.168C212.003 251.995 212.487 253.686 212.867 255.107C214.196 260.079 214.956 264.029 214.986 267.56C215.567 338.135 215.687 408.719 215.806 479.344C215.846 502.903 215.886 526.465 215.943 550.034L215.977 564.013L229.956 564C322.618 563.914 415.281 563.818 507.942 563.721L509.486 563.72C602.662 563.623 695.838 563.526 789.013 563.439L803 563.427V549.439V548.931V548.422V547.914V547.405V546.896V546.388V545.879V545.371V544.862V544.354V543.845V543.336V542.828V542.319V541.81V541.302V540.793V540.285V539.776V539.267V538.759V538.25V537.741V537.233V536.724V536.215V535.707V535.198V534.689V534.181V533.672V533.163V532.655V532.146V531.637V531.129V530.62V530.111V529.602V529.094V528.585V528.076V527.567V527.059V526.55V526.041V525.532V525.023V524.515V524.006V523.497V522.988V522.479V521.97V521.462V520.953V520.444V519.935V519.426V518.917V518.408V517.899V517.39V516.881V516.372V515.863V515.354V514.845V514.336V513.827V513.318V512.809V512.3V511.791V511.282V510.773V510.264V509.755V509.246V508.737V508.228V507.718V507.209V506.7V506.191V505.682V505.172V504.663V504.154V503.645V503.135V502.626V502.117V501.607V501.098V500.589V500.079V499.57V499.061V498.551V498.042V497.532V497.023V496.513V496.004V495.494V494.985V494.475V493.966V493.456V492.946V492.437V491.927V491.418V490.908V490.398V489.888V489.379V488.869V488.359V487.849V487.34V486.83V486.32V485.81V485.3V484.79V484.28V483.77V483.26V482.751V482.241V481.73V481.22V480.71V480.2V479.69V479.18V478.67V478.16V477.65V477.139V476.629V476.119V475.609V475.098V474.588V474.078V473.567V473.057V472.546V472.036V471.526V471.015V470.505V469.994V469.483V468.973V468.462V467.952V467.441V466.93V466.42V465.909V465.398V464.887V464.377V463.866V463.355V462.844V462.333V461.822V461.311V460.8V460.289V459.778V459.267V458.756V458.245V457.734V457.222V456.711V456.2V455.689V455.177V454.666V454.155V453.643V453.132V452.621V452.109V451.598V451.086V450.574V450.063V449.551V449.04V448.528V448.016V447.504V446.993V446.481V445.969V445.457V444.945V444.433V443.921V443.409V442.897V442.385V441.873V441.361V440.849V440.337V439.825V439.312V438.8V438.288V437.776V437.263V436.751V436.238V435.726V435.213V434.701V434.188V433.676V433.163V432.65V432.137V431.625V431.112V430.599V430.086V429.573V429.06V428.547V428.034V427.521V427.008V426.495V425.982V425.469V424.956V424.442V423.929V423.416V422.902V422.389V421.875V421.362V420.848V420.335V419.821V419.308V418.794V418.28V417.766V417.253V416.739V416.225V415.711V415.197V414.683V414.169V413.655V413.141V412.627V412.112V411.598V411.084V410.57V410.055V409.541V409.026V408.512V407.997V407.483V406.968V406.453V405.939V405.424V404.909V404.394V403.88V403.365V402.85V402.335V401.82V401.305V400.789V400.274V399.759V399.244V398.728V398.213V397.698V397.182V396.667V396.151V395.636V395.12V394.604V394.089V393.573V393.057V392.541V392.025V391.509V390.993V390.477V389.961V389.445V388.929V388.413V387.896V387.38V386.864V386.347V385.831V385.314V384.798V384.281V383.764V383.247V382.731V382.214V381.697V381.18V380.663V380.146V379.629V379.112V378.595V378.078V377.56V377.043V376.526V376.008V375.491V374.973V374.456V373.938V373.42V372.903V372.385V371.867V371.349V370.831V370.313V369.795V369.277V368.759V368.241V367.722V367.204V366.686V366.167V365.649V365.13V364.612V364.093V363.574V363.056V362.537V362.018V361.499V360.98V360.461V359.942V359.423V358.904V358.384V357.865V357.346V356.826V356.307V355.787V355.268V354.748V354.228V353.708V353.189V352.669V352.149V351.629V351.109V350.589V350.068V349.548V349.028V348.508V347.987V347.467V346.946V346.426V345.905V345.384V344.863V344.343V343.822V343.301V342.78V342.259V341.738V341.216V340.695V340.174V339.653V339.131V338.61V338.088V337.566V337.045V336.523V336.001V335.479V334.957V334.435V333.913V333.391V332.869V332.347V331.824V331.302V330.78V330.257V329.735V329.212V328.689V328.166V327.644V327.121V326.598V326.075V325.552V325.028V324.505V323.982V323.459V322.935V322.412V321.888V321.365V320.841V320.317V319.793V319.269V318.745V318.221V317.697V317.173V316.649V316.125V315.6V315.076V314.551V314.027V313.502V312.977V312.453V311.928V311.403V310.878V310.353V309.828V309.302V308.777V308.252V307.726V307.201V306.675V306.15V305.624V305.098V304.573V304.047V303.521V302.995V302.468V301.942V301.416V300.89V300.363V299.837V299.31V298.784V298.257V297.73V297.203V296.676V296.149V295.622V295.095V294.568V294.041V293.513V292.986V292.458V291.931V291.403V290.875V290.347V289.82V289.292V288.763V288.235V287.707V287.179V286.651V286.122V285.594V271.594H789H410.461Z" fill="#BE0426" stroke="black" stroke-width="28"/>
</svg>
