<svg width="233" height="81" viewBox="0 0 233 81" fill="none" xmlns="http://www.w3.org/2000/svg">
<g clip-path="url(#clip0_17_294)">
<path d="M71.6772 81H0V0H71.6772V81ZM20.9809 51.1422C35.9975 51.1762 51.0142 51.2179 66.0308 51.2216C66.4887 51.2216 66.9466 50.8507 67.4045 50.6501V27.4883H34.8206V4.88672C34.2794 4.67475 33.7382 4.28487 33.197 4.28109C24.1144 4.24324 15.0318 4.24324 5.94913 4.28109C5.40417 4.28109 4.863 4.66718 4.31804 4.87537C4.31804 10.7349 4.31804 16.5944 4.32182 22.4577C4.87813 22.6546 5.43445 23.0142 5.99076 23.0179C10.5964 23.0369 15.2021 22.9877 19.8039 22.9612C19.978 23.0217 20.1559 23.0672 20.3375 23.1012C20.3565 31.5233 20.3603 39.9492 20.4246 48.3714C20.4322 49.2987 20.7841 50.2223 20.9733 51.1459L20.9809 51.1422ZM23.4332 76.5978V63.2397H43.9978V55.3551H16.3752V27.6132H4.33318V76.5978H23.4294H23.4332ZM67.397 76.6243V55.7185H48.5467V67.4035H27.7967V76.6243H67.397ZM39.3089 22.9271H67.3213V4.36815H39.3089V22.9271Z" fill="#050505"/>
<path d="M142.015 22.3025C143.71 19.4409 145.788 17.5445 149.417 18.8845V50.2943C147.02 50.6904 144.473 49.3757 141.776 46.3501C132.433 54.3974 123.1 51.021 118.517 46.104C112.719 39.8811 112.882 28.6125 118.718 22.3517C124.807 15.8222 133.375 15.7125 142.015 22.3063V22.3025ZM130.624 25.5313C125.851 25.4783 122.642 28.9229 122.616 34.1314C122.585 39.3739 125.696 42.879 130.427 42.9396C134.809 42.9964 138.692 38.9727 138.741 34.3282C138.79 29.6534 135.029 25.5805 130.624 25.5313Z" fill="#040404"/>
<path d="M84.0751 5.88599H92.2078V33.9042C94.9705 30.3991 97.3168 27.4315 99.6518 24.4601C103.007 20.1903 107.641 18.2914 113.552 18.7633C110.691 22.3593 108.121 25.8947 105.219 29.131C103.47 31.0804 103.292 32.5567 104.7 34.8127C107.713 39.6426 110.396 44.6732 113.208 49.628C113.291 49.7719 113.264 49.98 113.348 50.5895C110.608 50.5895 107.909 50.703 105.234 50.51C104.572 50.4608 103.811 49.5145 103.391 48.8028C101.544 45.6649 99.807 42.4588 97.7974 38.8629C95.5041 42.8033 91.2655 45.1917 92.2154 50.4267H84.0713V5.88599H84.0751Z" fill="#040404"/>
<path d="M195.542 18.5741V26.7275C191.159 26.7275 186.853 26.7275 182.55 26.7275C181.626 26.7275 180.608 26.4777 179.81 26.7918C178.78 27.2006 177.929 28.0599 176.998 28.7223C177.902 29.415 178.746 30.5846 179.723 30.7058C182.084 30.9972 184.502 30.789 186.898 30.8042C193.343 30.8458 197.805 34.8203 197.744 40.4489C197.68 46.2063 193.089 50.529 186.871 50.582C180.983 50.635 175.098 50.5933 169.028 50.5933V42.3983C174.549 42.3983 179.972 42.3983 185.399 42.3983C186.137 42.3983 187.008 42.6292 187.579 42.315C188.359 41.8911 188.911 41.047 189.558 40.3846C188.889 39.9304 188.238 39.1203 187.545 39.0787C184.79 38.9235 182.016 39.0635 179.253 38.9954C173.263 38.8402 168.846 34.4304 168.861 28.692C168.877 22.9158 173.301 18.646 179.363 18.5779C181.668 18.5514 183.973 18.5741 186.274 18.5741C189.297 18.5741 192.321 18.5741 195.542 18.5741Z" fill="#040404"/>
<path d="M233 34.3472C232.898 43.8064 225.613 51.252 216.534 51.1763C207.493 51.0968 200.189 43.4582 200.234 34.1314C200.28 24.5813 207.682 17.113 216.939 17.2796C226.317 17.4499 233.102 24.6608 232.996 34.3472H233ZM224.807 34.1465C224.761 29.2258 221.287 25.5389 216.674 25.5238C212.061 25.5049 208.575 29.1879 208.534 34.1276C208.492 39.0371 212.25 43.0343 216.822 42.9396C221.37 42.8488 224.852 39.0143 224.807 34.1465Z" fill="#040404"/>
<path d="M163.559 50.4646H155.631V18.6914H163.559V50.4608V50.4646Z" fill="#040404"/>
<path d="M167.397 73.3804V58.8792C170.027 58.8792 172.589 58.6861 175.109 58.9246C179.151 59.3031 181.706 62.1913 181.751 66.0408C181.793 69.9169 179.03 73.0094 174.954 73.3425C172.494 73.5431 170.004 73.3804 167.401 73.3804H167.397ZM170.106 71.0828C173.3 71.1055 176.426 71.7641 178.266 68.6413C179.367 66.7676 179.272 64.716 177.876 62.9786C175.734 60.31 172.816 61.3093 170.106 61.1352V71.0828Z" fill="#040404"/>
<path d="M224.118 58.493C228.64 58.4703 232.183 61.8808 232.115 66.1922C232.046 70.4468 228.652 73.6453 224.186 73.6642C219.709 73.6831 216.303 70.5263 216.193 66.2641C216.084 61.9641 219.599 58.5157 224.118 58.493ZM224.023 71.2C227.028 71.2606 229.333 69.0424 229.329 66.0975C229.322 63.2586 227.149 61.0594 224.285 60.9951C221.295 60.9269 218.983 63.1602 218.986 66.1127C218.986 68.963 221.151 71.147 224.023 71.2038V71.2Z" fill="#040404"/>
<path d="M159.59 15.2582C156.611 15.2355 154.185 12.794 154.174 9.80746C154.163 6.82092 156.558 4.35674 159.529 4.29618C162.538 4.23561 165.232 6.90798 165.164 9.88695C165.1 12.7713 162.496 15.2809 159.586 15.2582H159.59Z" fill="#040404"/>
<path d="M85.7439 70.443C88.2189 70.7382 90.1754 71.1205 92.1358 71.1205C92.764 71.1205 93.6306 70.2121 93.9144 69.5231C94.0431 69.209 93.1424 68.1643 92.518 67.8993C91.1783 67.3315 89.6872 67.1271 88.3059 66.6426C86.5121 66.0105 84.9756 64.7386 85.5622 62.793C86.0012 61.3509 87.303 59.4545 88.567 59.1327C90.8869 58.5422 93.4641 58.9662 96.4235 58.9662C95.9013 60.4538 95.6818 61.0859 95.4282 61.8013C94.6751 61.5704 94.0923 61.3281 93.4868 61.2222C92.5029 61.0556 91.4356 60.7187 90.5236 60.942C89.6797 61.1464 88.9909 61.9868 88.234 62.5508C88.8547 63.217 89.3618 64.1141 90.1262 64.4964C91.254 65.0604 92.5748 65.2231 93.7971 65.613C95.6174 66.1922 96.8398 67.2634 96.7944 69.368C96.749 71.5596 95.4169 73.0018 93.5322 73.2402C91.3297 73.5166 89.0098 73.1948 86.7884 72.8352C85.0967 72.5627 84.8091 71.4612 85.7401 70.4505L85.7439 70.443Z" fill="#040404"/>
<path d="M137.587 58.8565H140.069C140.179 59.1744 140.334 59.4167 140.334 59.659C140.357 62.1421 140.304 64.629 140.372 67.1121C140.452 69.9434 141.682 71.2493 144.1 71.1963C146.677 71.1395 147.638 69.5762 147.665 67.2332C147.695 64.5684 147.672 61.8998 147.672 59.0003C148.497 58.8981 149.266 58.8035 149.958 58.7164C150.159 59.0155 150.34 59.1631 150.34 59.3107C150.367 62.161 150.48 65.015 150.359 67.8615C150.2 71.5635 147.831 73.6491 144.032 73.6567C140.24 73.6643 137.893 71.571 137.613 67.9183C137.579 67.4603 137.587 66.9985 137.587 66.5405C137.587 64.0612 137.587 61.5818 137.587 58.8565Z" fill="#040404"/>
<path d="M115.493 61.1692H110.926C110.377 58.8413 110.377 58.7807 112.19 58.758C115.588 58.7126 118.986 58.7466 122.699 58.7466C122.741 59.5037 122.786 60.2304 122.835 61.1048H118.252V73.157C117.302 73.2933 116.549 73.3992 115.493 73.5506V61.1692Z" fill="#040404"/>
<path d="M200 73.3387H197.506V58.5688C198.217 58.5347 199.042 58.4968 200 58.4514V73.3387Z" fill="#040404"/>
<path d="M20.3451 23.0974C20.1634 23.0634 19.9855 23.0179 19.8115 22.9574C18.941 22.8022 18.0706 22.5296 17.2002 22.5183C12.9087 22.4577 8.61711 22.4691 4.32556 22.4577C4.32556 16.5982 4.32556 10.7387 4.32178 4.87537C14.4868 4.87537 24.6555 4.88294 34.8205 4.88672V27.4883H67.4007C67.4007 35.407 67.4007 43.0304 67.4007 50.6501C51.9337 50.6652 36.4668 50.6841 20.9998 50.6993C20.9809 42.4324 20.9846 34.1616 20.9203 25.8947C20.9127 24.9598 20.5456 24.0286 20.3451 23.0974Z" fill="#BE0426"/>
<path d="M23.4295 76.5977H4.33325V27.6132H16.3753V55.3588H43.9941V63.2435H23.4295V76.6015V76.5977Z" fill="#A6B6D7"/>
<path d="M67.3933 76.6243H27.793V67.4035H48.543V55.7185H67.3933V76.6243Z" fill="#F2F2F2"/>
<path d="M39.3088 22.9271V4.36816H67.3212V22.9271H39.3088Z" fill="#F2F2F2"/>
<path d="M20.9999 50.6992C36.4668 50.6841 51.9338 50.6652 67.4008 50.65C66.9429 50.8469 66.4849 51.2216 66.0308 51.2216C51.0142 51.2178 35.9976 51.1762 20.9809 51.1421C20.9734 50.9945 20.9809 50.8469 20.9999 50.6992Z" fill="#BF2E49"/>
<path d="M34.8205 4.88671C24.6555 4.88293 14.4868 4.87914 4.32178 4.87535C4.86674 4.67095 5.40791 4.28486 5.95287 4.28107C15.0355 4.24322 24.1182 4.24322 33.2008 4.28107C33.742 4.28107 34.2831 4.67474 34.8243 4.88671H34.8205Z" fill="#C12441"/>
<path d="M20.9998 50.6993C20.9809 50.8469 20.9733 50.9945 20.9809 51.1421C20.7879 50.2185 20.4359 49.2912 20.4321 48.3676C20.3678 39.9454 20.3678 31.5195 20.3489 23.0974C20.5495 24.0286 20.9165 24.9597 20.9241 25.8947C20.9884 34.1616 20.9847 42.4323 21.0036 50.6993H20.9998Z" fill="#833D49"/>
<path d="M4.32568 22.4578C8.61723 22.4729 12.9088 22.4578 17.2003 22.5183C18.0745 22.5297 18.9412 22.806 19.8116 22.9574C15.2059 22.9839 10.6003 23.0331 5.9984 23.0142C5.44209 23.0142 4.88578 22.6508 4.32947 22.454L4.32568 22.4578Z" fill="#C01031"/>
</g>
<defs>
<clipPath id="clip0_17_294">
<rect width="233" height="81" fill="white"/>
</clipPath>
</defs>
</svg>
