<svg width="403" height="49" viewBox="0 0 403 49" fill="none" xmlns="http://www.w3.org/2000/svg">
<path d="M29.2031 29.5469L34.875 11.25H39.6406L31.6094 34H28.4375L29.2031 29.5469ZM23.9688 11.25L29.6094 29.5469L30.4219 34H27.2188L19.2188 11.25H23.9688ZM46.0469 17.0938V34H41.9062V17.0938H46.0469ZM41.625 12.6719C41.625 12.0573 41.8333 11.5469 42.25 11.1406C42.6771 10.7344 43.25 10.5312 43.9688 10.5312C44.6875 10.5312 45.2552 10.7344 45.6719 11.1406C46.099 11.5469 46.3125 12.0573 46.3125 12.6719C46.3125 13.276 46.099 13.7812 45.6719 14.1875C45.2552 14.5938 44.6875 14.7969 43.9688 14.7969C43.25 14.7969 42.6771 14.5938 42.25 14.1875C41.8333 13.7812 41.625 13.276 41.625 12.6719ZM57.5781 34.3125C56.2969 34.3125 55.1458 34.1042 54.125 33.6875C53.1042 33.2708 52.2344 32.6927 51.5156 31.9531C50.8073 31.2031 50.2604 30.3333 49.875 29.3438C49.5 28.3438 49.3125 27.2708 49.3125 26.125V25.5C49.3125 24.1979 49.5 23.0156 49.875 21.9531C50.25 20.8802 50.7812 19.9583 51.4688 19.1875C52.1562 18.4167 52.9792 17.8229 53.9375 17.4062C54.8958 16.9896 55.9531 16.7812 57.1094 16.7812C58.3073 16.7812 59.3646 16.9844 60.2812 17.3906C61.1979 17.7865 61.9635 18.349 62.5781 19.0781C63.1927 19.8073 63.6562 20.6823 63.9688 21.7031C64.2812 22.7135 64.4375 23.8333 64.4375 25.0625V26.7969H51.1875V23.9531H60.375V23.6406C60.3542 22.9844 60.2292 22.3854 60 21.8438C59.7708 21.2917 59.4167 20.8542 58.9375 20.5312C58.4583 20.1979 57.8385 20.0312 57.0781 20.0312C56.4635 20.0312 55.9271 20.1667 55.4688 20.4375C55.0208 20.6979 54.6458 21.0729 54.3438 21.5625C54.0521 22.0417 53.8333 22.6146 53.6875 23.2812C53.5417 23.9479 53.4688 24.6875 53.4688 25.5V26.125C53.4688 26.8333 53.5625 27.4896 53.75 28.0938C53.9479 28.6979 54.2344 29.224 54.6094 29.6719C54.9948 30.1094 55.4531 30.4531 55.9844 30.7031C56.526 30.9427 57.1406 31.0625 57.8281 31.0625C58.6927 31.0625 59.474 30.8958 60.1719 30.5625C60.8802 30.2188 61.4948 29.7135 62.0156 29.0469L64.0938 31.2031C63.7396 31.724 63.2604 32.224 62.6562 32.7031C62.0625 33.1823 61.3438 33.5729 60.5 33.875C59.6562 34.1667 58.6823 34.3125 57.5781 34.3125ZM71.9062 29.9375L75.6094 17.0938H78.2344L77.4531 21.5312L73.7188 34H71.4531L71.9062 29.9375ZM69.8594 17.0938L72.6406 29.9688L72.8906 34H70.2812L65.8438 17.0938H69.8594ZM81.6719 29.7812L84.3906 17.0938H88.3906L83.9844 34H81.375L81.6719 29.7812ZM78.6406 17.0938L82.3125 29.8125L82.7969 34H80.5312L76.7656 21.5312L76 17.0938H78.6406ZM98.0625 25.7188V25.3906C98.0625 24.151 98.2396 23.0104 98.5938 21.9688C98.9479 20.9167 99.4635 20.0052 100.141 19.2344C100.818 18.4635 101.646 17.8646 102.625 17.4375C103.604 17 104.719 16.7812 105.969 16.7812C107.24 16.7812 108.365 17 109.344 17.4375C110.333 17.8646 111.167 18.4635 111.844 19.2344C112.521 20.0052 113.036 20.9167 113.391 21.9688C113.745 23.0104 113.922 24.151 113.922 25.3906V25.7188C113.922 26.9479 113.745 28.0885 113.391 29.1406C113.036 30.1823 112.521 31.0938 111.844 31.875C111.167 32.6458 110.339 33.2448 109.359 33.6719C108.38 34.099 107.26 34.3125 106 34.3125C104.75 34.3125 103.63 34.099 102.641 33.6719C101.651 33.2448 100.818 32.6458 100.141 31.875C99.4635 31.0938 98.9479 30.1823 98.5938 29.1406C98.2396 28.0885 98.0625 26.9479 98.0625 25.7188ZM102.188 25.3906V25.7188C102.188 26.4583 102.26 27.151 102.406 27.7969C102.552 28.4427 102.776 29.0104 103.078 29.5C103.38 29.9896 103.771 30.375 104.25 30.6562C104.74 30.9271 105.323 31.0625 106 31.0625C106.667 31.0625 107.24 30.9271 107.719 30.6562C108.198 30.375 108.589 29.9896 108.891 29.5C109.203 29.0104 109.432 28.4427 109.578 27.7969C109.724 27.151 109.797 26.4583 109.797 25.7188V25.3906C109.797 24.6615 109.724 23.9792 109.578 23.3438C109.432 22.6979 109.203 22.1302 108.891 21.6406C108.589 21.1406 108.193 20.75 107.703 20.4688C107.224 20.1771 106.646 20.0312 105.969 20.0312C105.302 20.0312 104.729 20.1771 104.25 20.4688C103.771 20.75 103.38 21.1406 103.078 21.6406C102.776 22.1302 102.552 22.6979 102.406 23.3438C102.26 23.9792 102.188 24.6615 102.188 25.3906ZM126.984 29.9844V17.0938H131.141V34H127.234L126.984 29.9844ZM127.516 26.4844L128.797 26.4531C128.797 27.5885 128.672 28.6354 128.422 29.5938C128.172 30.5521 127.781 31.3854 127.25 32.0938C126.729 32.7917 126.068 33.3385 125.266 33.7344C124.464 34.1198 123.516 34.3125 122.422 34.3125C121.589 34.3125 120.828 34.1979 120.141 33.9688C119.453 33.7292 118.859 33.3594 118.359 32.8594C117.87 32.349 117.49 31.6979 117.219 30.9062C116.948 30.1042 116.812 29.1406 116.812 28.0156V17.0938H120.938V28.0469C120.938 28.6094 121 29.0781 121.125 29.4531C121.26 29.8281 121.443 30.1354 121.672 30.375C121.911 30.6042 122.188 30.7708 122.5 30.875C122.823 30.9688 123.167 31.0156 123.531 31.0156C124.531 31.0156 125.318 30.8177 125.891 30.4219C126.474 30.0156 126.891 29.474 127.141 28.7969C127.391 28.1094 127.516 27.3385 127.516 26.4844ZM138.922 20.5469V34H134.797V17.0938H138.703L138.922 20.5469ZM144.062 16.9844L144 20.8281C143.771 20.7865 143.51 20.7552 143.219 20.7344C142.938 20.7135 142.672 20.7031 142.422 20.7031C141.786 20.7031 141.229 20.7917 140.75 20.9688C140.271 21.1354 139.87 21.3802 139.547 21.7031C139.234 22.026 138.995 22.4219 138.828 22.8906C138.661 23.349 138.568 23.8698 138.547 24.4531L137.656 24.3438C137.656 23.2708 137.766 22.276 137.984 21.3594C138.203 20.4427 138.521 19.6406 138.938 18.9531C139.354 18.2656 139.875 17.7344 140.5 17.3594C141.135 16.974 141.865 16.7812 142.688 16.7812C142.917 16.7812 143.161 16.8021 143.422 16.8438C143.693 16.875 143.906 16.9219 144.062 16.9844ZM158.422 20.3438V40.5H154.281V17.0938H158.109L158.422 20.3438ZM169.281 25.375V25.7031C169.281 26.9323 169.135 28.0729 168.844 29.125C168.562 30.1667 168.146 31.0781 167.594 31.8594C167.042 32.6302 166.354 33.2344 165.531 33.6719C164.719 34.099 163.781 34.3125 162.719 34.3125C161.677 34.3125 160.771 34.1146 160 33.7188C159.229 33.3125 158.578 32.7396 158.047 32C157.516 31.2604 157.089 30.401 156.766 29.4219C156.453 28.4323 156.219 27.3542 156.062 26.1875V25.1406C156.219 23.901 156.453 22.776 156.766 21.7656C157.089 20.7448 157.516 19.8646 158.047 19.125C158.578 18.375 159.224 17.7969 159.984 17.3906C160.755 16.9844 161.656 16.7812 162.688 16.7812C163.76 16.7812 164.703 16.9844 165.516 17.3906C166.339 17.7969 167.031 18.3802 167.594 19.1406C168.156 19.901 168.578 20.8073 168.859 21.8594C169.141 22.9115 169.281 24.0833 169.281 25.375ZM165.141 25.7031V25.375C165.141 24.625 165.073 23.9323 164.938 23.2969C164.802 22.651 164.594 22.0885 164.312 21.6094C164.031 21.1198 163.667 20.7396 163.219 20.4688C162.771 20.1979 162.229 20.0625 161.594 20.0625C160.958 20.0625 160.411 20.1667 159.953 20.375C159.495 20.5833 159.12 20.8802 158.828 21.2656C158.536 21.651 158.307 22.1094 158.141 22.6406C157.984 23.1615 157.88 23.7396 157.828 24.375V26.9688C157.922 27.7396 158.104 28.4323 158.375 29.0469C158.646 29.6615 159.042 30.151 159.562 30.5156C160.094 30.8802 160.781 31.0625 161.625 31.0625C162.26 31.0625 162.802 30.9219 163.25 30.6406C163.698 30.3594 164.062 29.974 164.344 29.4844C164.625 28.9844 164.828 28.4115 164.953 27.7656C165.078 27.1198 165.141 26.4323 165.141 25.7031ZM176.422 20.5469V34H172.297V17.0938H176.203L176.422 20.5469ZM181.562 16.9844L181.5 20.8281C181.271 20.7865 181.01 20.7552 180.719 20.7344C180.438 20.7135 180.172 20.7031 179.922 20.7031C179.286 20.7031 178.729 20.7917 178.25 20.9688C177.771 21.1354 177.37 21.3802 177.047 21.7031C176.734 22.026 176.495 22.4219 176.328 22.8906C176.161 23.349 176.068 23.8698 176.047 24.4531L175.156 24.3438C175.156 23.2708 175.266 22.276 175.484 21.3594C175.703 20.4427 176.021 19.6406 176.438 18.9531C176.854 18.2656 177.375 17.7344 178 17.3594C178.635 16.974 179.365 16.7812 180.188 16.7812C180.417 16.7812 180.661 16.8021 180.922 16.8438C181.193 16.875 181.406 16.9219 181.562 16.9844ZM182.656 25.7188V25.3906C182.656 24.151 182.833 23.0104 183.188 21.9688C183.542 20.9167 184.057 20.0052 184.734 19.2344C185.411 18.4635 186.24 17.8646 187.219 17.4375C188.198 17 189.312 16.7812 190.562 16.7812C191.833 16.7812 192.958 17 193.938 17.4375C194.927 17.8646 195.76 18.4635 196.438 19.2344C197.115 20.0052 197.63 20.9167 197.984 21.9688C198.339 23.0104 198.516 24.151 198.516 25.3906V25.7188C198.516 26.9479 198.339 28.0885 197.984 29.1406C197.63 30.1823 197.115 31.0938 196.438 31.875C195.76 32.6458 194.932 33.2448 193.953 33.6719C192.974 34.099 191.854 34.3125 190.594 34.3125C189.344 34.3125 188.224 34.099 187.234 33.6719C186.245 33.2448 185.411 32.6458 184.734 31.875C184.057 31.0938 183.542 30.1823 183.188 29.1406C182.833 28.0885 182.656 26.9479 182.656 25.7188ZM186.781 25.3906V25.7188C186.781 26.4583 186.854 27.151 187 27.7969C187.146 28.4427 187.37 29.0104 187.672 29.5C187.974 29.9896 188.365 30.375 188.844 30.6562C189.333 30.9271 189.917 31.0625 190.594 31.0625C191.26 31.0625 191.833 30.9271 192.312 30.6562C192.792 30.375 193.182 29.9896 193.484 29.5C193.797 29.0104 194.026 28.4427 194.172 27.7969C194.318 27.151 194.391 26.4583 194.391 25.7188V25.3906C194.391 24.6615 194.318 23.9792 194.172 23.3438C194.026 22.6979 193.797 22.1302 193.484 21.6406C193.182 21.1406 192.786 20.75 192.297 20.4688C191.818 20.1771 191.24 20.0312 190.562 20.0312C189.896 20.0312 189.323 20.1771 188.844 20.4688C188.365 20.75 187.974 21.1406 187.672 21.6406C187.37 22.1302 187.146 22.6979 187 23.3438C186.854 23.9792 186.781 24.6615 186.781 25.3906ZM201.719 17.0938H205.875V35.25C205.875 36.4479 205.656 37.4635 205.219 38.2969C204.792 39.1302 204.172 39.7604 203.359 40.1875C202.547 40.6146 201.552 40.8281 200.375 40.8281C200.01 40.8281 199.646 40.8073 199.281 40.7656C198.917 40.724 198.557 40.6562 198.203 40.5625L198.219 37.375C198.448 37.4167 198.682 37.4479 198.922 37.4688C199.161 37.5 199.401 37.5156 199.641 37.5156C200.089 37.5156 200.464 37.4375 200.766 37.2812C201.078 37.125 201.312 36.8802 201.469 36.5469C201.635 36.2135 201.719 35.7812 201.719 35.25V17.0938ZM201.375 12.6719C201.375 12.0573 201.583 11.5469 202 11.1406C202.427 10.7344 203 10.5312 203.719 10.5312C204.438 10.5312 205.005 10.7344 205.422 11.1406C205.849 11.5469 206.062 12.0573 206.062 12.6719C206.062 13.276 205.849 13.7812 205.422 14.1875C205.005 14.5938 204.438 14.7969 203.719 14.7969C203 14.7969 202.427 14.5938 202 14.1875C201.583 13.7812 201.375 13.276 201.375 12.6719ZM217.297 34.3125C216.016 34.3125 214.865 34.1042 213.844 33.6875C212.823 33.2708 211.953 32.6927 211.234 31.9531C210.526 31.2031 209.979 30.3333 209.594 29.3438C209.219 28.3438 209.031 27.2708 209.031 26.125V25.5C209.031 24.1979 209.219 23.0156 209.594 21.9531C209.969 20.8802 210.5 19.9583 211.188 19.1875C211.875 18.4167 212.698 17.8229 213.656 17.4062C214.615 16.9896 215.672 16.7812 216.828 16.7812C218.026 16.7812 219.083 16.9844 220 17.3906C220.917 17.7865 221.682 18.349 222.297 19.0781C222.911 19.8073 223.375 20.6823 223.688 21.7031C224 22.7135 224.156 23.8333 224.156 25.0625V26.7969H210.906V23.9531H220.094V23.6406C220.073 22.9844 219.948 22.3854 219.719 21.8438C219.49 21.2917 219.135 20.8542 218.656 20.5312C218.177 20.1979 217.557 20.0312 216.797 20.0312C216.182 20.0312 215.646 20.1667 215.188 20.4375C214.74 20.6979 214.365 21.0729 214.062 21.5625C213.771 22.0417 213.552 22.6146 213.406 23.2812C213.26 23.9479 213.188 24.6875 213.188 25.5V26.125C213.188 26.8333 213.281 27.4896 213.469 28.0938C213.667 28.6979 213.953 29.224 214.328 29.6719C214.714 30.1094 215.172 30.4531 215.703 30.7031C216.245 30.9427 216.859 31.0625 217.547 31.0625C218.411 31.0625 219.193 30.8958 219.891 30.5625C220.599 30.2188 221.214 29.7135 221.734 29.0469L223.812 31.2031C223.458 31.724 222.979 32.224 222.375 32.7031C221.781 33.1823 221.062 33.5729 220.219 33.875C219.375 34.1667 218.401 34.3125 217.297 34.3125ZM233.859 31.0625C234.443 31.0625 234.964 30.9479 235.422 30.7188C235.88 30.4896 236.245 30.1667 236.516 29.75C236.797 29.3333 236.948 28.849 236.969 28.2969H240.859C240.839 29.4427 240.516 30.4688 239.891 31.375C239.266 32.2812 238.432 33 237.391 33.5312C236.359 34.0521 235.203 34.3125 233.922 34.3125C232.62 34.3125 231.484 34.0938 230.516 33.6562C229.547 33.2188 228.74 32.6094 228.094 31.8281C227.458 31.0469 226.979 30.1406 226.656 29.1094C226.344 28.0781 226.188 26.974 226.188 25.7969V25.2969C226.188 24.1198 226.344 23.0156 226.656 21.9844C226.979 20.9531 227.458 20.0469 228.094 19.2656C228.74 18.4844 229.547 17.875 230.516 17.4375C231.484 17 232.615 16.7812 233.906 16.7812C235.271 16.7812 236.469 17.0469 237.5 17.5781C238.542 18.1094 239.354 18.8594 239.938 19.8281C240.531 20.7969 240.839 21.9375 240.859 23.25H236.969C236.948 22.6458 236.812 22.1042 236.562 21.625C236.312 21.1458 235.958 20.7604 235.5 20.4688C235.042 20.1771 234.484 20.0312 233.828 20.0312C233.13 20.0312 232.547 20.1771 232.078 20.4688C231.62 20.7604 231.26 21.1615 231 21.6719C230.75 22.1719 230.573 22.7344 230.469 23.3594C230.375 23.974 230.328 24.6198 230.328 25.2969V25.7969C230.328 26.4844 230.375 27.1406 230.469 27.7656C230.573 28.3906 230.75 28.9531 231 29.4531C231.26 29.9427 231.62 30.3333 232.078 30.625C232.547 30.9167 233.141 31.0625 233.859 31.0625ZM251.609 17.0938V20.0625H241.922V17.0938H251.609ZM244.516 12.9375H248.656V29.125C248.656 29.625 248.724 30.0104 248.859 30.2812C248.995 30.5521 249.198 30.7344 249.469 30.8281C249.74 30.9219 250.062 30.9688 250.438 30.9688C250.708 30.9688 250.958 30.9531 251.188 30.9219C251.417 30.8906 251.609 30.8594 251.766 30.8281L251.781 33.9219C251.438 34.0365 251.047 34.1302 250.609 34.2031C250.182 34.276 249.698 34.3125 249.156 34.3125C248.229 34.3125 247.417 34.1562 246.719 33.8438C246.021 33.5208 245.479 33.0052 245.094 32.2969C244.708 31.5781 244.516 30.6302 244.516 29.4531V12.9375ZM263.656 29.375C263.656 29.0208 263.562 28.7031 263.375 28.4219C263.188 28.1406 262.833 27.8854 262.312 27.6562C261.802 27.4167 261.052 27.1927 260.062 26.9844C259.188 26.7969 258.38 26.5625 257.641 26.2812C256.901 26 256.266 25.6615 255.734 25.2656C255.203 24.8594 254.786 24.3854 254.484 23.8438C254.193 23.2917 254.047 22.6562 254.047 21.9375C254.047 21.2396 254.198 20.5833 254.5 19.9688C254.802 19.3438 255.24 18.7969 255.812 18.3281C256.385 17.849 257.083 17.474 257.906 17.2031C258.729 16.9219 259.656 16.7812 260.688 16.7812C262.125 16.7812 263.359 17.0156 264.391 17.4844C265.432 17.9531 266.229 18.599 266.781 19.4219C267.333 20.2344 267.609 21.151 267.609 22.1719H263.484C263.484 21.724 263.38 21.3177 263.172 20.9531C262.974 20.5885 262.667 20.2969 262.25 20.0781C261.833 19.849 261.307 19.7344 260.672 19.7344C260.099 19.7344 259.615 19.8281 259.219 20.0156C258.833 20.2031 258.542 20.4479 258.344 20.75C258.146 21.0521 258.047 21.3854 258.047 21.75C258.047 22.0208 258.099 22.2656 258.203 22.4844C258.318 22.6927 258.5 22.8854 258.75 23.0625C259 23.2396 259.339 23.401 259.766 23.5469C260.203 23.6927 260.74 23.8333 261.375 23.9688C262.635 24.2188 263.734 24.5521 264.672 24.9688C265.62 25.375 266.359 25.9167 266.891 26.5938C267.422 27.2708 267.688 28.1354 267.688 29.1875C267.688 29.9375 267.526 30.625 267.203 31.25C266.88 31.8646 266.411 32.401 265.797 32.8594C265.182 33.3177 264.448 33.6771 263.594 33.9375C262.74 34.1875 261.776 34.3125 260.703 34.3125C259.151 34.3125 257.839 34.0365 256.766 33.4844C255.693 32.9219 254.88 32.2135 254.328 31.3594C253.776 30.4948 253.5 29.599 253.5 28.6719H257.453C257.484 29.3281 257.661 29.8542 257.984 30.25C258.307 30.6458 258.714 30.9323 259.203 31.1094C259.703 31.276 260.229 31.3594 260.781 31.3594C261.406 31.3594 261.932 31.276 262.359 31.1094C262.786 30.9323 263.109 30.6979 263.328 30.4062C263.547 30.1042 263.656 29.7604 263.656 29.375Z" fill="#F2F2F2"/>
<rect x="329.5" y="2.5" width="71" height="43.3636" rx="21.6818" stroke="#F2F2F2" stroke-width="5"/>
<g clip-path="url(#clip0_17_58)">
<path d="M369.2 28.8692C366.582 31.2275 363.964 33.5843 361.351 35.948C361.186 36.0964 361.1 36.1202 360.937 35.936C359.878 34.7415 358.808 33.5561 357.732 32.377C357.583 32.2146 357.574 32.1365 357.747 31.9816C360.68 29.3496 363.605 26.707 366.539 24.0765C366.739 23.8972 366.721 23.8096 366.555 23.6259C363.937 20.7327 361.328 17.8305 358.71 14.937C358.552 14.761 358.557 14.675 358.733 14.5216C359.433 13.9097 360.123 13.286 360.805 12.6546C360.957 12.5145 361.031 12.5307 361.162 12.677C363.095 14.8314 365.036 16.9787 366.968 19.1341C367.119 19.3024 367.202 19.3257 367.381 19.1624C368.723 17.9376 370.079 16.7273 371.424 15.5053C371.572 15.3701 371.646 15.3729 371.781 15.5237C373.547 17.4948 375.319 19.4612 377.096 21.4228C377.235 21.5763 377.22 21.6491 377.073 21.7801C374.446 24.14 371.823 26.5053 369.199 28.8695L369.2 28.8692Z" fill="#F2F2F2"/>
</g>
<defs>
<clipPath id="clip0_17_58">
<rect width="21.5815" height="25.628" fill="white" transform="translate(360.986 38.9102) rotate(-132.021)"/>
</clipPath>
</defs>
</svg>
